<?xml version="1.0" encoding="UTF-8" standalone="no"?>
<svg
   viewBox="0 0 1255.488 1255.4881"
   width="1255.488"
   height="1255.488"
   version="1.1"
   id="svg27"
   xmlns="http://www.w3.org/2000/svg"
   xmlns:svg="http://www.w3.org/2000/svg">
  <desc
     id="desc1">logo-outline.dxf - scale = 1.000000, origin = (0.000000, 0.000000), method = auto</desc>
  <defs
     id="defs4" />
  <g
     id="g27"
     transform="translate(193.09826,-296.35083)">
    <path
       id="path5"
       fill="currentColor"
       stroke="currentColor"
       d="M 513.5326,302.86841 A 37.795276,37.795276 0 0 0 482.11463,318.41919 607.53256,607.53256 0 0 0 39.768927,1385.7961 37.795276,37.795276 0 1 0 64.253302,1357.0032 569.73728,569.73728 0 0 1 478.14588,356.02075 37.795276,37.795276 0 1 0 513.5326,302.86841 Z m 276.07812,115.77734 a 37.795276,37.795276 0 1 0 15.96485,73 569.73728,569.73728 0 0 1 197.14453,475.94922 37.795276,37.795276 0 1 0 37.6016,3.96875 607.53256,607.53256 0 0 0 -210.96488,-509.3125 37.795276,37.795276 0 0 0 -39.7461,-43.60547 z m 1.12305,18.86328 a 18.89764,18.89764 0 0 1 20.1875,18.85547 18.89764,18.89764 0 0 1 -37.79492,0 18.89764,18.89764 0 0 1 17.60742,-18.85547 z M 160.35096,687.87427 a 37.79528,37.79528 0 0 0 0,75.58984 h 308.96289 a 37.79528,37.79528 0 0 0 0,-75.58984 z m 496.3418,0 a 137.00788,137.00788 0 0 0 0,274.01562 h 113.38671 a 61.417323,61.417323 0 1 1 0,122.83401 37.7959,37.7959 0 0 0 0,75.5918 137.00789,137.00789 0 0 0 0,-274.01565 v -0.002 H 656.69276 v 0.002 a 61.41797,61.41797 0 1 1 0,-122.83594 37.79528,37.79528 0 0 0 0,-75.58984 z m 113.38671,0 a 37.795275,37.795275 0 0 0 0,75.58984 h 99.21094 a 37.795275,37.795275 0 0 0 0,-75.58984 z M -1.2896663,687.8977 A 37.795279,37.795279 0 0 0 -26.725213,752.3938 L 144.97401,924.09497 -26.725213,1095.7942 a 37.795696,37.795696 0 0 0 53.451172,53.4512 L 225.14979,950.81958 a 37.795276,37.795276 0 0 0 0,-53.45117 L 26.725959,698.94458 A 37.795279,37.795279 0 0 0 -1.2896663,687.8977 Z m 1.03125005,30.2129 a 7.559055,7.559055 0 0 1 5.60351565,2.21289 L 203.77088,918.74927 a 7.559055,7.559055 0 0 1 0,10.68945 L 5.3450994,1127.8645 A 7.559055,7.559055 0 1 1 -5.3443538,1117.175 L 187.73572,924.09497 -5.3443538,731.01489 A 7.559055,7.559055 0 0 1 -0.25841625,718.1106 Z M 311.8119,886.30005 a 37.795276,37.795276 0 0 0 0,75.58984 h 99.21093 a 37.795276,37.795276 0 0 0 0,-75.58984 z m -99.21289,198.42385 a 37.7959,37.7959 0 0 0 0,75.5918 h 444.09375 a 37.7959,37.7959 0 0 0 0,-75.5918 z m 0,30.2363 h 444.09375 a 7.5595703,7.5595703 0 0 1 0,15.1191 H 212.59901 a 7.5595703,7.5595703 0 0 1 0,-15.1191 z m 689.45117,128.7188 a 37.795276,37.795276 0 0 0 -34.95508,51.3457 569.73728,569.73728 0 0 1 -476.6543,197.0898 37.795276,37.795276 0 1 0 -3.04687,37.6719 607.53256,607.53256 0 0 0 509.09375,-210.9805 37.795276,37.795276 0 1 0 5.5625,-75.1269 z m -0.96289,18.9394 a 18.89764,18.89764 0 0 1 20.1875,18.8535 18.89764,18.89764 0 0 1 -37.79492,0 18.89764,18.89764 0 0 1 17.60742,-18.8535 z M 75.655646,1373.7532 a 18.897638,18.897638 0 0 1 20.1875,18.8496 18.897638,18.897638 0 0 1 -37.794922,0 18.897638,18.897638 0 0 1 17.607422,-18.8496 z" />
  </g>
</svg>
